<svg width="1024" height="768" xmlns="http://www.w3.org/2000/svg">
 <!-- Created with Method Draw - http://github.com/duopixel/Method-Draw/ -->

 <g>
  <title>background</title>
  <rect x="-1" y="-1" width="1026" height="770" id="canvas_background" fill="#fff"/>
  <g id="canvasGrid" display="none">
   <rect id="svg_5" width="100%" height="100%" x="0" y="0" stroke-width="0" fill="url(#gridpattern)"/>
  </g>
 </g>
 <g>
  <title>Layer 1</title>
  <text fill="#000000" stroke="#000" stroke-width="0" x="80" y="70" id="svg_1" font-size="30" font-family="Helvetica, Arial, sans-serif" text-anchor="start" xml:space="preserve">program</text>
  <text fill="#000000" stroke="#000" stroke-width="0" x="728" y="67" id="svg_2" font-size="30" font-family="Helvetica, Arial, sans-serif" text-anchor="start" xml:space="preserve">update</text>
  <text fill="#000000" stroke="#000" stroke-width="0" x="471" y="70" id="svg_3" font-size="30" font-family="Helvetica, Arial, sans-serif" text-anchor="start" xml:space="preserve">view</text>
  <line fill="none" stroke="#000" stroke-width="1.5" x1="330" y1="-3" x2="330" y2="785" id="svg_4" stroke-linejoin="undefined" stroke-linecap="undefined"/>
  <line fill="none" stroke="#000" stroke-width="1.5" x1="330" y1="58" x2="330" y2="846" id="svg_7" stroke-linejoin="undefined" stroke-linecap="undefined"/>
  <path fill="#ff00ff" stroke-width="1.5" d="m132.45694,134.365479c4.368378,0 7.91423,-2.209229 7.91423,-4.934113c0,-2.727196 -3.545853,-4.937813 -7.91423,-4.937813c-4.37114,0 -7.916992,2.210617 -7.916992,4.937813c0,2.724884 3.545166,4.934113 7.916992,4.934113zm22.194199,21.281937l-7.101364,-16.424637c-0.066193,-0.148926 -0.159958,-0.290863 -0.272339,-0.422577c-0.806656,-1.538589 -3.12323,-2.65274 -5.859665,-2.65274l-17.972687,0c-2.852951,0 -5.248108,1.209564 -5.95343,2.851471c-0.047562,0.071655 -0.086868,0.147522 -0.122711,0.225708l-6.974518,16.423279c-0.465378,1.076904 0.560532,2.183105 2.288986,2.473022c1.727081,0.28804 3.50174,-0.350876 3.966431,-1.427322l5.47702,-12.901611l2.282776,0l-9.941238,23.342743l9.367615,0l0,16.114639c0,1.239838 1.60849,2.244156 3.598938,2.244156c1.98494,0 3.59758,-1.003387 3.59758,-2.244156l0,-16.114639l2.86261,0l0,16.114639c0,1.239838 1.610565,2.244156 3.601013,2.244156c1.985626,0 3.598251,-1.003387 3.598251,-2.244156l0,-16.114639l9.362793,0l-9.97847,-23.342743l2.341385,0l5.579056,12.901611c0.465393,1.076447 2.238663,1.715363 3.965744,1.427322c1.723633,-0.289917 2.748154,-1.397049 2.286224,-2.473526l0,0z" id="svg_12"/>
  <path fill="#000000" stroke="#000" stroke-width="1.5" stroke-opacity="null" d="m79.919991,231.879684l13.999962,-46.886475l14.000031,46.886475l-7.000046,0l0,47.11351l-13.999733,0l0,-47.11351l-7.000214,0z" id="svg_13" transform="rotate(19, 93.92, 231.993)"/>
  <text fill="#000000" stroke="#000" stroke-width="0" stroke-opacity="null" fill-opacity="null" x="45.5" y="312" id="svg_16" font-size="30" font-family="Helvetica, Arial, sans-serif" text-anchor="start" xml:space="preserve">Model</text>
 </g>
</svg>