<svg width="1024" height="768" xmlns="http://www.w3.org/2000/svg">
 <!-- Created with Method Draw - http://github.com/duopixel/Method-Draw/ -->

 <g>
  <title>background</title>
  <rect x="-1" y="-1" width="1026" height="770" id="canvas_background" fill="#fff"/>
  <g id="canvasGrid" display="none">
   <rect id="svg_5" width="100%" height="100%" x="0" y="0" stroke-width="0" fill="url(#gridpattern)"/>
  </g>
 </g>
 <g>
  <title>Layer 1</title>
  <text fill="#000000" stroke="#000" stroke-width="0" x="80" y="70" id="svg_1" font-size="30" font-family="Helvetica, Arial, sans-serif" text-anchor="start" xml:space="preserve">program</text>
  <text fill="#000000" stroke="#000" stroke-width="0" x="728" y="67" id="svg_2" font-size="30" font-family="Helvetica, Arial, sans-serif" text-anchor="start" xml:space="preserve">update</text>
  <text fill="#000000" stroke="#000" stroke-width="0" x="471" y="70" id="svg_3" font-size="30" font-family="Helvetica, Arial, sans-serif" text-anchor="start" xml:space="preserve">view</text>
  <line fill="none" stroke="#000" stroke-width="1.5" x1="330" y1="-3" x2="330" y2="785" id="svg_4" stroke-linejoin="undefined" stroke-linecap="undefined"/>
  <line fill="none" stroke="#000" stroke-width="1.5" x1="330" y1="58" x2="330" y2="846" id="svg_7" stroke-linejoin="undefined" stroke-linecap="undefined"/>
  <path fill="#000000" stroke="#000" stroke-width="1.5" stroke-opacity="null" d="m119.987,143.128784c3.285339,0 5.952057,-1.484894 5.952057,-3.316376c0,-1.833023 -2.666718,-3.318848 -5.952057,-3.318848c-3.287399,0 -5.954132,1.485825 -5.954132,3.318848c0,1.831482 2.666214,3.316376 5.954132,3.316376zm16.69162,14.304245l-5.340729,-11.039505c-0.049789,-0.100098 -0.1203,-0.195496 -0.204819,-0.284027c-0.606674,-1.034134 -2.348892,-1.78299 -4.406891,-1.78299l-13.516739,0c-2.145615,0 -3.946945,0.812988 -4.477394,1.916565c-0.035774,0.048157 -0.065331,0.099152 -0.0923,0.151703l-5.245331,11.038589c-0.349983,0.723831 0.42157,1.467346 1.721481,1.662201c1.298889,0.193604 2.63356,-0.23584 2.98304,-0.959351l4.11911,-8.67157l1.716812,0l-7.476517,15.689377l7.045105,0l0,10.831161c0,0.833328 1.209702,1.508362 2.706665,1.508362c1.492805,0 2.705627,-0.674408 2.705627,-1.508362l0,-10.831161l2.152885,0l0,10.831161c0,0.833328 1.211266,1.508362 2.708221,1.508362c1.493332,0 2.706131,-0.674408 2.706131,-1.508362l0,-10.831161l7.041496,0l-7.504517,-15.689377l1.76088,0l4.195847,8.67157c0.350006,0.723511 1.68364,1.152954 2.982529,0.959351c1.296295,-0.194855 2.066803,-0.938995 1.719406,-1.662537l0,0z" id="svg_12"/>
  <line fill="none" stroke="#ff0000" stroke-width="5" x1="170.5" y1="147" x2="473.5" y2="147" id="svg_17" stroke-linejoin="null" stroke-linecap="null"/>
  <path fill="#ff0000" stroke="#ff0000" stroke-width="5" d="m463.437317,147.349976l-17.797882,-17l32,17l-32,17l17.797882,-17z" id="svg_18"/>
  <path fill="#ff0000" stroke-width="1.5" d="m408.45694,85.365479c4.368378,0 7.914215,-2.209229 7.914215,-4.934105c0,-2.727203 -3.545837,-4.93782 -7.914215,-4.93782c-4.371124,0 -7.916992,2.210617 -7.916992,4.93782c0,2.724876 3.545166,4.934105 7.916992,4.934105zm22.194183,21.281944l-7.101349,-16.424644c-0.066193,-0.148926 -0.159943,-0.290855 -0.272339,-0.422577c-0.806671,-1.538589 -3.12323,-2.65274 -5.85965,-2.65274l-17.972717,0c-2.852936,0 -5.248108,1.209572 -5.95343,2.851471c-0.047546,0.071655 -0.086853,0.147514 -0.122681,0.225708l-6.974548,16.423279c-0.465363,1.076904 0.560547,2.183098 2.289001,2.473022c1.727081,0.28804 3.50174,-0.350868 3.966431,-1.427322l5.47702,-12.901611l2.282776,0l-9.941254,23.342743l9.367615,0l0,16.114639c0,1.239838 1.608521,2.244156 3.598938,2.244156c1.984955,0 3.597595,-1.003387 3.597595,-2.244156l0,-16.114639l2.86261,0l0,16.114639c0,1.239838 1.610565,2.244156 3.601013,2.244156c1.985626,0 3.598267,-1.003387 3.598267,-2.244156l0,-16.114639l9.362793,0l-9.978485,-23.342743l2.3414,0l5.579041,12.901611c0.465393,1.076454 2.238647,1.715363 3.965759,1.427322c1.723633,-0.289925 2.748138,-1.397049 2.286194,-2.473518l0,0z" id="svg_19"/>
 </g>
</svg>