<svg width="1024" height="768" xmlns="http://www.w3.org/2000/svg">
 <!-- Created with Method Draw - http://github.com/duopixel/Method-Draw/ -->
 <g>
  <title>background</title>
  <rect fill="#fff" id="canvas_background" height="770" width="1026" y="-1" x="-1"/>
  <g display="none" overflow="visible" y="0" x="0" height="100%" width="100%" id="canvasGrid">
   <rect fill="url(#gridpattern)" stroke-width="0" y="0" x="0" height="100%" width="100%"/>
  </g>
 </g>
 <g>
  <title>Layer 1</title>
  <text xml:space="preserve" text-anchor="start" font-family="Helvetica, Arial, sans-serif" font-size="30" id="svg_1" y="70" x="80" stroke-width="0" stroke="#000" fill="#000000">program</text>
  <text xml:space="preserve" text-anchor="start" font-family="Helvetica, Arial, sans-serif" font-size="30" id="svg_2" y="67" x="728" stroke-width="0" stroke="#000" fill="#000000">update</text>
  <text xml:space="preserve" text-anchor="start" font-family="Helvetica, Arial, sans-serif" font-size="30" id="svg_3" y="70" x="471" stroke-width="0" stroke="#000" fill="#000000">view</text>
  <line stroke-linecap="undefined" stroke-linejoin="undefined" id="svg_4" y2="785" x2="330" y1="-3" x1="330" stroke-width="1.5" stroke="#000" fill="none"/>
  <line stroke-linecap="undefined" stroke-linejoin="undefined" id="svg_7" y2="846" x2="330" y1="58" x1="330" stroke-width="1.5" stroke="#000" fill="none"/>
  <path id="svg_12" d="m132.45694,134.365479c4.368378,0 7.91423,-2.209229 7.91423,-4.934113c0,-2.727196 -3.545853,-4.937813 -7.91423,-4.937813c-4.37114,0 -7.916992,2.210617 -7.916992,4.937813c0,2.724884 3.545166,4.934113 7.916992,4.934113zm22.194199,21.281937l-7.101364,-16.424637c-0.066193,-0.148926 -0.159958,-0.290863 -0.272339,-0.422577c-0.806656,-1.538589 -3.12323,-2.65274 -5.859665,-2.65274l-17.972687,0c-2.852951,0 -5.248108,1.209564 -5.95343,2.851471c-0.047562,0.071655 -0.086868,0.147522 -0.122711,0.225708l-6.974518,16.423279c-0.465378,1.076904 0.560532,2.183105 2.288986,2.473022c1.727081,0.28804 3.50174,-0.350876 3.966431,-1.427322l5.47702,-12.901611l2.282776,0l-9.941238,23.342743l9.367615,0l0,16.114639c0,1.239838 1.60849,2.244156 3.598938,2.244156c1.98494,0 3.59758,-1.003387 3.59758,-2.244156l0,-16.114639l2.86261,0l0,16.114639c0,1.239838 1.610565,2.244156 3.601013,2.244156c1.985626,0 3.598251,-1.003387 3.598251,-2.244156l0,-16.114639l9.362793,0l-9.97847,-23.342743l2.341385,0l5.579056,12.901611c0.465393,1.076447 2.238663,1.715363 3.965744,1.427322c1.723633,-0.289917 2.748154,-1.397049 2.286224,-2.473526l0,0z" stroke-opacity="null" stroke-width="1.5" stroke="#000" fill="#000000"/>
  <line stroke-linecap="null" stroke-linejoin="null" id="svg_17" y2="147" x2="473.5" y1="147" x1="170.5" stroke-width="5" stroke="#ff0000" fill="none"/>
  <path id="svg_18" d="m463.437317,147.349976l-17.797882,-17l32,17l-32,17l17.797882,-17z" stroke-width="5" stroke="#ff0000" fill="#ff0000"/>
  <path id="svg_19" d="m408.45694,85.365479c4.368378,0 7.914215,-2.209229 7.914215,-4.934113c0,-2.727196 -3.545837,-4.937813 -7.914215,-4.937813c-4.371124,0 -7.916992,2.210617 -7.916992,4.937813c0,2.724884 3.545166,4.934113 7.916992,4.934113zm22.194183,21.281937l-7.101349,-16.424637c-0.066193,-0.148926 -0.159943,-0.290863 -0.272339,-0.422577c-0.806671,-1.538589 -3.12323,-2.65274 -5.85965,-2.65274l-17.972717,0c-2.852936,0 -5.248108,1.209564 -5.95343,2.851471c-0.047546,0.071655 -0.086853,0.147522 -0.122681,0.225708l-6.974548,16.423279c-0.465363,1.076904 0.560547,2.183105 2.289001,2.473022c1.727081,0.28804 3.50174,-0.350876 3.966431,-1.427322l5.47702,-12.901611l2.282776,0l-9.941254,23.342743l9.367615,0l0,16.114639c0,1.239838 1.608521,2.244156 3.598938,2.244156c1.984955,0 3.597595,-1.003387 3.597595,-2.244156l0,-16.114639l2.86261,0l0,16.114639c0,1.239838 1.610565,2.244156 3.601013,2.244156c1.985626,0 3.598267,-1.003387 3.598267,-2.244156l0,-16.114639l9.362793,0l-9.978485,-23.342743l2.3414,0l5.579041,12.901611c0.465393,1.076447 2.238647,1.715363 3.965759,1.427322c1.723633,-0.289917 2.748138,-1.397049 2.286194,-2.473526l0,0z" stroke-opacity="null" stroke-width="1.5" stroke="#000" fill="#ff0000"/>
 </g>
</svg>