<svg width="1024" height="768" xmlns="http://www.w3.org/2000/svg">
 <!-- Created with Method Draw - http://github.com/duopixel/Method-Draw/ -->
 <g>
  <title>background</title>
  <rect fill="#fff" id="canvas_background" height="770" width="1026" y="-1" x="-1"/>
  <g display="none" overflow="visible" y="0" x="0" height="100%" width="100%" id="canvasGrid">
   <rect fill="url(#gridpattern)" stroke-width="0" y="0" x="0" height="100%" width="100%"/>
  </g>
 </g>
 <g>
  <title>Layer 1</title>
  <text xml:space="preserve" text-anchor="start" font-family="Helvetica, Arial, sans-serif" font-size="30" id="svg_1" y="70" x="80" stroke-width="0" stroke="#000" fill="#000000">program</text>
  <text xml:space="preserve" text-anchor="start" font-family="Helvetica, Arial, sans-serif" font-size="30" id="svg_2" y="67" x="728" stroke-width="0" stroke="#000" fill="#000000">update</text>
  <text xml:space="preserve" text-anchor="start" font-family="Helvetica, Arial, sans-serif" font-size="30" id="svg_3" y="70" x="471" stroke-width="0" stroke="#000" fill="#000000">view</text>
  <line stroke-linecap="undefined" stroke-linejoin="undefined" id="svg_4" y2="785" x2="330" y1="-3" x1="330" stroke-width="1.5" stroke="#000" fill="none"/>
  <line stroke-linecap="undefined" stroke-linejoin="undefined" id="svg_7" y2="846" x2="330" y1="58" x1="330" stroke-width="1.5" stroke="#000" fill="none"/>
  <path id="svg_12" d="m119.987,143.128784c3.285339,0 5.952057,-1.484894 5.952057,-3.316376c0,-1.833023 -2.666718,-3.318848 -5.952057,-3.318848c-3.287399,0 -5.954132,1.485825 -5.954132,3.318848c0,1.831482 2.666214,3.316376 5.954132,3.316376zm16.69162,14.304245l-5.340729,-11.039505c-0.049789,-0.100098 -0.1203,-0.195496 -0.204819,-0.284027c-0.606674,-1.034134 -2.348892,-1.78299 -4.406891,-1.78299l-13.516739,0c-2.145615,0 -3.946945,0.812988 -4.477394,1.916565c-0.035774,0.048157 -0.065331,0.099152 -0.092293,0.151703l-5.245331,11.038589c-0.349998,0.723831 0.421562,1.467346 1.721481,1.662201c1.298889,0.193604 2.63356,-0.23584 2.98304,-0.959351l4.119102,-8.67157l1.716812,0l-7.476517,15.689377l7.045105,0l0,10.831161c0,0.833328 1.209702,1.508362 2.706665,1.508362c1.492813,0 2.705627,-0.674408 2.705627,-1.508362l0,-10.831161l2.152893,0l0,10.831161c0,0.833328 1.211258,1.508362 2.708221,1.508362c1.493332,0 2.706131,-0.674408 2.706131,-1.508362l0,-10.831161l7.041489,0l-7.504517,-15.689377l1.76088,0l4.195847,8.67157c0.350006,0.723511 1.68364,1.152954 2.982529,0.959351c1.296295,-0.194855 2.066803,-0.938995 1.719406,-1.662537l0,0z" stroke-opacity="null" stroke-width="1.5" stroke="#000" fill="#000000"/>
  <line stroke-linecap="null" stroke-linejoin="null" id="svg_17" y2="147" x2="473.5" y1="147" x1="170.5" stroke-width="5" stroke="#ff0000" fill="none"/>
  <path id="svg_18" d="m463.437317,147.349976l-17.797882,-17l32,17l-32,17l17.797882,-17z" stroke-width="5" stroke="#ff0000" fill="#ff0000"/>
  <path id="svg_20" d="m991.456909,684.365479c4.368408,0 7.914246,-2.209229 7.914246,-4.934082c0,-2.727234 -3.545837,-4.937866 -7.914246,-4.937866c-4.371094,0 -7.916992,2.210632 -7.916992,4.937866c0,2.724854 3.545166,4.934082 7.916992,4.934082zm22.194214,21.281921l-7.101318,-16.424622c-0.066223,-0.148926 -0.159973,-0.290894 -0.272339,-0.422607c-0.806702,-1.538574 -3.123291,-2.65271 -5.85968,-2.65271l-17.972717,0c-2.852905,0 -5.248108,1.209595 -5.95343,2.85144c-0.047546,0.071655 -0.086853,0.147583 -0.122681,0.225708l-6.974548,16.42334c-0.465332,1.076904 0.560547,2.183105 2.289001,2.473022c1.727112,0.288025 3.50177,-0.350891 3.966431,-1.427368l5.47699,-12.901611l2.282837,0l-9.941284,23.342773l9.367615,0l0,16.114624c0,1.239868 1.608521,2.244141 3.598938,2.244141c1.984985,0 3.597595,-1.003357 3.597595,-2.244141l0,-16.114624l2.86261,0l0,16.114624c0,1.239868 1.610596,2.244141 3.601013,2.244141c1.985657,0 3.598267,-1.003357 3.598267,-2.244141l0,-16.114624l9.362793,0l-9.978455,-23.342773l2.34137,0l5.579041,12.901611c0.465393,1.076477 2.238647,1.715393 3.965759,1.427368c1.723633,-0.289917 2.748108,-1.397095 2.286194,-2.473572l0,0z" stroke-width="1.5" fill="none"/>
  <text xml:space="preserve" text-anchor="start" font-family="Helvetica, Arial, sans-serif" font-size="30" id="svg_23" y="204" x="439" stroke-width="0" stroke="#ff0000" fill="#000000">"User clicks +"</text>
  <line stroke-linecap="null" stroke-linejoin="null" id="svg_24" y2="147" x2="473.5" y1="147" x1="170.5" stroke-width="5" stroke="#ff0000" fill="none"/>
  <line transform="rotate(90, 481, 236)" stroke-linecap="null" stroke-linejoin="null" id="svg_25" y2="236" x2="497.499993" y1="236" x1="464.499993" stroke-width="5" stroke="#000000" fill="none"/>
  <path transform="rotate(90, 481.639, 249.35)" id="svg_26" d="m483.437317,249.349976l-17.797882,-17l31.999969,17l-31.999969,17l17.797882,-17z" stroke-width="5" stroke="#000000" fill="#000000"/>
  <text xml:space="preserve" text-anchor="start" font-family="Helvetica, Arial, sans-serif" font-size="30" id="svg_27" y="305" x="340" stroke-width="0" stroke="#ff0000" fill="#000000">Produces "Increment" message</text>
  <path id="svg_29" d="m571.704224,256.455933l-36.162598,0l18.09082,9.25531l18.071777,-9.25531zm-17.014893,13.195801c-0.335632,0.167053 -0.687927,0.254089 -1.056885,0.254089s-0.740295,-0.087036 -1.075928,-0.254089l-18.424072,-9.430084l0,19.234283l39,0l0,-19.234283l-18.443115,9.430084z" stroke-width="5" fill="#000000"/>
  <line stroke-linecap="null" stroke-linejoin="null" id="svg_31" y2="147" x2="473.5" y1="147" x1="170.5" stroke-width="5" stroke="#ff0000" fill="none"/>
  <path id="svg_32" d="m463.437317,147.349976l-17.797882,-17l32,17l-32,17l17.797882,-17z" stroke-width="5" stroke="#ff0000" fill="#ff0000"/>
  <line stroke-linecap="null" stroke-linejoin="null" id="svg_33" y2="147" x2="473.5" y1="147" x1="170.5" stroke-width="5" stroke="#ff0000" fill="none"/>
  <line stroke-linecap="null" stroke-linejoin="null" id="svg_34" y2="360" x2="473.5" y1="360" x1="170.5" stroke-width="5" stroke="#000000" fill="none"/>
  <path transform="rotate(180, 172.639, 360.35)" id="svg_35" d="m174.437317,360.349976l-17.797882,-17l32,17l-32,17l17.797882,-17z" stroke-width="5" stroke="#000000" fill="#000000"/>
  <line stroke-linecap="null" stroke-linejoin="null" id="svg_36" y2="360" x2="473.5" y1="360" x1="170.5" stroke-width="5" stroke="#000000" fill="none"/>
  <path id="svg_45" d="m255.704224,321.455933l-36.162598,0l18.09082,9.25531l18.071777,-9.25531zm-17.014893,13.195801c-0.335632,0.167053 -0.687927,0.254089 -1.056885,0.254089s-0.740295,-0.087036 -1.075928,-0.254089l-18.424072,-9.430084l0,19.234283l39,0l0,-19.234283l-18.443115,9.430084z" stroke-width="5" fill="#000000"/>
  <path id="svg_50" d="m717.437317,430.349976l-17.797913,-17l32,17l-32,17l17.797913,-17z" stroke-width="5" stroke="#000000" fill="#000000"/>
  <line stroke-linecap="null" stroke-linejoin="null" id="svg_51" y2="430" x2="720" y1="430" x1="170.5" stroke-width="5" stroke="#000000" fill="none"/>
  <line stroke-linecap="null" stroke-linejoin="null" id="svg_54" y2="520" x2="720" y1="520" x1="170.5" stroke-width="5" stroke="#000000" fill="none"/>
  <path transform="rotate(180, 172.639, 519.35)" id="svg_56" d="m174.437317,519.349976l-17.797882,-17l32,17l-32,17l17.797882,-17z" stroke-width="5" stroke="#000000" fill="#000000"/>
  <path id="svg_57" d="m618.704224,393.455933l-36.162598,0l18.09082,9.25531l18.071777,-9.25531zm-17.014893,13.195801c-0.335632,0.167053 -0.687927,0.254089 -1.056885,0.254089s-0.740295,-0.087036 -1.075928,-0.254089l-18.424072,-9.430084l0,19.234283l39,0l0,-19.234283l-18.443115,9.430084z" stroke-width="5" fill="#000000"/>
  <line stroke="#ff0000" stroke-linecap="null" stroke-linejoin="null" id="svg_59" y2="638" x2="473.5" y1="638" x1="170.5" stroke-width="5" fill="none"/>
  <path id="svg_60" d="m410.456909,572.365479c4.368408,0 7.914246,-2.209229 7.914246,-4.934082c0,-2.727234 -3.545837,-4.937866 -7.914246,-4.937866c-4.371094,0 -7.916992,2.210632 -7.916992,4.937866c0,2.724854 3.545166,4.934082 7.916992,4.934082zm22.194214,21.281921l-7.101318,-16.424622c-0.066223,-0.148926 -0.159973,-0.290894 -0.272339,-0.422607c-0.806702,-1.538574 -3.123291,-2.65271 -5.85968,-2.65271l-17.972717,0c-2.852905,0 -5.248108,1.209595 -5.95343,2.85144c-0.047546,0.071655 -0.086853,0.147583 -0.122681,0.225708l-6.974548,16.42334c-0.465332,1.076904 0.560547,2.183105 2.289001,2.473022c1.727112,0.288025 3.50177,-0.350891 3.966431,-1.427368l5.47699,-12.901611l2.282837,0l-9.941284,23.342773l9.367615,0l0,16.114624c0,1.239868 1.608521,2.244141 3.598938,2.244141c1.984985,0 3.597595,-1.003357 3.597595,-2.244141l0,-16.114624l2.86261,0l0,16.114624c0,1.239868 1.610596,2.244141 3.601013,2.244141c1.985657,0 3.598267,-1.003357 3.598267,-2.244141l0,-16.114624l9.362793,0l-9.978455,-23.342773l2.34137,0l5.579041,12.901611c0.465393,1.076477 2.238647,1.715393 3.965759,1.427368c1.723633,-0.289917 2.748108,-1.397095 2.286194,-2.473572l0,0z" stroke-width="1.5" fill="#ff0000"/>
  <path stroke="#ff0000" id="svg_61" d="m473.437317,637.349976l-17.797913,-17l32,17l-32,17l17.797913,-17z" stroke-width="5" fill="#ff0000"/>
  <path id="svg_63" d="m228.987,473.128784c3.285339,0 5.952087,-1.484894 5.952087,-3.316376c0,-1.833038 -2.666748,-3.318848 -5.952087,-3.318848c-3.287415,0 -5.954163,1.485809 -5.954163,3.318848c0,1.831482 2.66626,3.316376 5.954163,3.316376zm16.691589,14.30426l-5.340698,-11.03952c-0.049805,-0.100098 -0.1203,-0.195496 -0.204834,-0.284027c-0.606689,-1.034119 -2.348877,-1.78299 -4.40686,-1.78299l-13.516724,0c-2.14563,0 -3.94696,0.812988 -4.477417,1.916565c-0.035767,0.048157 -0.065308,0.099152 -0.092285,0.151703l-5.245361,11.038574c-0.349976,0.723846 0.42157,1.467346 1.721497,1.662231c1.298889,0.193604 2.633545,-0.23584 2.983032,-0.959351l4.11908,-8.67157l1.716858,0l-7.476501,15.689362l7.045044,0l0,10.831146c0,0.833344 1.209717,1.508362 2.706665,1.508362c1.492859,0 2.705688,-0.674377 2.705688,-1.508362l0,-10.831146l2.152832,0l0,10.831146c0,0.833344 1.211304,1.508362 2.708252,1.508362c1.493347,0 2.706116,-0.674377 2.706116,-1.508362l0,-10.831146l7.041504,0l-7.504517,-15.689362l1.760864,0l4.195862,8.67157c0.349976,0.723511 1.683655,1.152954 2.982544,0.959351c1.296265,-0.194885 2.066772,-0.939026 1.71936,-1.662537l0,0z" stroke-opacity="null" stroke-width="1.5" stroke="#000" fill="#000000"/>
  <path id="svg_65" d="m408.456909,82.365479c4.368408,0 7.914246,-2.209229 7.914246,-4.934082c0,-2.727234 -3.545837,-4.937866 -7.914246,-4.937866c-4.371094,0 -7.916992,2.210632 -7.916992,4.937866c0,2.724854 3.545166,4.934082 7.916992,4.934082zm22.194214,21.281921l-7.101318,-16.424622c-0.066223,-0.148926 -0.159973,-0.290894 -0.272339,-0.422607c-0.806702,-1.538574 -3.123291,-2.65271 -5.85968,-2.65271l-17.972717,0c-2.852905,0 -5.248108,1.209595 -5.95343,2.85144c-0.047546,0.071655 -0.086853,0.147583 -0.122681,0.225708l-6.974548,16.42334c-0.465332,1.076904 0.560547,2.183105 2.289001,2.473022c1.727112,0.288025 3.50177,-0.350891 3.966431,-1.427368l5.47699,-12.901611l2.282837,0l-9.941284,23.342773l9.367615,0l0,16.114624c0,1.239868 1.608521,2.244141 3.598938,2.244141c1.984985,0 3.597595,-1.003357 3.597595,-2.244141l0,-16.114624l2.86261,0l0,16.114624c0,1.239868 1.610596,2.244141 3.601013,2.244141c1.985657,0 3.598267,-1.003357 3.598267,-2.244141l0,-16.114624l9.362793,0l-9.978455,-23.342773l2.34137,0l5.579041,12.901611c0.465393,1.076477 2.238647,1.715393 3.965759,1.427368c1.723633,-0.289917 2.748108,-1.397095 2.286194,-2.473572l0,0z" stroke-width="1.5" fill="#ff0000"/>
  <path id="svg_66" d="m649.987,383.128784c3.285339,0 5.952087,-1.484894 5.952087,-3.316376c0,-1.833038 -2.666748,-3.318848 -5.952087,-3.318848c-3.287415,0 -5.954163,1.485809 -5.954163,3.318848c0,1.831482 2.66626,3.316376 5.954163,3.316376zm16.691589,14.30426l-5.340698,-11.03952c-0.049805,-0.100098 -0.1203,-0.195496 -0.204834,-0.284027c-0.606689,-1.034119 -2.348877,-1.78299 -4.40686,-1.78299l-13.516724,0c-2.14563,0 -3.94696,0.812988 -4.477417,1.916565c-0.035767,0.048157 -0.065308,0.099152 -0.092285,0.151703l-5.245361,11.038574c-0.349976,0.723846 0.42157,1.467346 1.721497,1.662231c1.298889,0.193604 2.633545,-0.23584 2.983032,-0.959351l4.11908,-8.67157l1.716858,0l-7.476501,15.689362l7.045044,0l0,10.831146c0,0.833344 1.209717,1.508362 2.706665,1.508362c1.492859,0 2.705688,-0.674377 2.705688,-1.508362l0,-10.831146l2.152832,0l0,10.831146c0,0.833344 1.211304,1.508362 2.708252,1.508362c1.493347,0 2.706116,-0.674377 2.706116,-1.508362l0,-10.831146l7.041504,0l-7.504517,-15.689362l1.760864,0l4.195862,8.67157c0.349976,0.723511 1.683655,1.152954 2.982544,0.959351c1.296265,-0.194885 2.066772,-0.939026 1.71936,-1.662537l0,0z" stroke-opacity="null" stroke-width="1.5" stroke="#000" fill="#000000"/>
 </g>
</svg>